<svg width="116" height="36" viewBox="0 0 116 36" fill="none" xmlns="http://www.w3.org/2000/svg">
<path d="M108.414 9.39999L110.909 17.15C111.433 18.85 111.757 19.875 111.982 20.85C111.907 19.65 111.882 18.725 111.882 16.325V9.39999H115.2V28H111.807L108.888 19.55C108.364 18.025 108.014 16.825 107.79 15.9C107.89 16.875 107.94 18.15 107.94 20.425V28H104.596V9.39999H108.414Z" fill="#28272F"/>
<path d="M95.8129 20.775H93.6172V28H89.65V9.39999H95.8129C98.5325 9.39999 99.9547 10.475 99.9547 13.5V16.6C99.9547 19.525 98.4826 20.775 95.8129 20.775ZM93.6172 12.35V17.7H94.6402C95.6631 17.7 96.0125 17.3 96.0125 15.975V14.05C96.0125 12.75 95.6631 12.35 94.6402 12.35H93.6172Z" fill="#28272F"/>
<path d="M77.2454 28L74.0018 9.39999H78.0188L79.8402 22.7L81.6367 9.39999H85.4043L82.2854 28H77.2454Z" fill="#28272F"/>
<path d="M63.9181 28H60.0258V9.39999H63.9181V17.325L67.0619 9.39999H70.9543L67.4861 17.925L71.2038 28H67.1617L63.9181 19.325V28Z" fill="#28272F"/>
<path d="M55.0288 14.375V23C55.0288 26.325 53.407 28.25 49.9389 28.25H49.3151C45.7471 28.25 44.2002 26.275 44.2002 23V14.375C44.2002 11.075 45.7222 9.17499 49.2902 9.17499H49.9139C53.4819 9.17499 55.0288 11.1 55.0288 14.375ZM51.0367 23V14.425C51.0367 13.1 50.5377 12.55 49.6145 12.55C48.6414 12.55 48.1923 13.1 48.1923 14.425V23C48.1923 24.225 48.6664 24.85 49.6145 24.85C50.5626 24.85 51.0367 24.225 51.0367 23Z" fill="#28272F"/>
<path d="M16.4439 36L8.28467 27.8872L11.3068 24.8822L16.4439 29.9902L29.2653 17.2415L32.2874 20.2465L16.4439 36Z" fill="#47A98E"/>
<path d="M9.36264 22.7629C7.34072 20.0444 5.87773 16.9751 4.98696 13.5699C4.38809 11.2803 4.14553 9.1671 4.07117 7.44942C4.42695 7.4681 4.79917 7.47807 5.18868 7.47807C6.24608 7.47807 7.38585 7.40359 8.57547 7.25676C12.3738 6.78866 15.1452 5.70763 17.0006 4.70988C18.8557 5.70757 21.6268 6.78866 25.4239 7.25667C26.6142 7.40359 27.754 7.47807 28.8115 7.47807C29.2016 7.47807 29.5742 7.4681 29.9305 7.44936C29.8701 8.83987 29.6966 10.4929 29.3147 12.2891L32.6067 15.6628C34.7943 8.42601 33.7517 2.49883 33.7517 2.49883C33.7517 2.49883 32.5393 3.6148 28.8114 3.6148C27.9837 3.6148 27.0314 3.55969 25.9414 3.42518C19.6743 2.65271 17.0008 0 17.0008 0C17.0008 0 14.3268 2.65271 8.05869 3.42518C6.96835 3.55978 6.0166 3.6148 5.18868 3.6148C1.46154 3.6148 0.248426 2.49883 0.248426 2.49883C0.248426 2.49883 -1.89956 14.7024 6.43669 25.4697L9.36264 22.7629Z" fill="#28272F"/>
</svg>
